<svg xmlns="http://www.w3.org/2000/svg" height="20" viewBox="0 -960 960 960" width="20"><path d="M372.309-250.001v-51.998h423.69v51.998h-423.69Zm0-204v-51.998h423.69v51.998h-423.69Zm0-204v-51.998h423.69v51.998h-423.69ZM222.327-217.463q-24.235 0-41.28-17.257-17.046-17.258-17.046-41.492 0-24.235 17.258-41.28t41.492-17.045q24.235 0 41.28 17.257 17.045 17.258 17.045 41.492 0 24.235-17.257 41.28-17.258 17.045-41.492 17.045Zm0-204q-24.235 0-41.28-17.257-17.046-17.258-17.046-41.492 0-24.235 17.258-41.28t41.492-17.045q24.235 0 41.28 17.257 17.045 17.258 17.045 41.492 0 24.235-17.257 41.28-17.258 17.045-41.492 17.045Zm0-204q-24.235 0-41.28-17.257-17.046-17.258-17.046-41.492 0-24.235 17.258-41.28t41.492-17.045q24.235 0 41.28 17.257 17.045 17.258 17.045 41.492 0 24.235-17.257 41.28-17.258 17.045-41.492 17.045Z"/></svg>