<svg xmlns="http://www.w3.org/2000/svg" height="20" viewBox="0 -960 960 960" width="20"><path d="M216-216h44.461l393.463-393.463-44.461-44.461L216-260.461V-216Zm-51.999 51.999v-118.383l497.616-498.384q8.073-8.241 17.372-11.736 9.299-3.495 19.493-3.495 10.193 0 19.471 3.27 9.277 3.269 17.969 11.576l44.846 44.461q8.308 8.692 11.769 18.004 3.462 9.311 3.462 19.164 0 10.509-3.642 20.063-3.643 9.553-11.589 17.46l-498.384 498H164.001Zm580.384-535.153-45.231-45.231 45.231 45.231Zm-113.082 67.851-21.84-22.621 44.461 44.461-22.621-21.84Z"/></svg>