<svg xmlns="http://www.w3.org/2000/svg" height="20" viewBox="0 -960 960 960" width="20"><path d="M707.691-164.001v-87.208q0-18.792 12.646-31.638 12.647-12.846 31.508-12.846h44.154v-44.923h-88.308V-384h87.538q18.862 0 31.508 12.599 12.646 12.598 12.646 31.39v43.219q0 18.791-12.646 31.637t-31.508 12.846h-44.153v44.923h88.307v43.385H707.691ZM292.694-300.309l150.153-233.845-138.768-213.845h63.481l110.825 174.847h-1.539L593-747.999h63.306L515.768-534.154l151.538 233.845H604L480.846-492.078h1.539L356-300.309h-63.306Z"/></svg>