<svg xmlns="http://www.w3.org/2000/svg" height="20" viewBox="0 -960 960 960" width="20"><path d="M707.691-576v-87.208q0-18.791 12.646-31.637 12.647-12.846 31.508-12.846h44.154v-44.923h-88.308v-43.385h87.538q18.862 0 31.508 12.599t12.646 31.39v43.219q0 18.792-12.646 31.638t-31.508 12.846h-44.153v44.923h88.307V-576H707.691ZM292.694-212.001l150.153-233.845-138.768-213.845h63.481l110.825 174.846h-1.539L593-659.691h63.306L515.768-445.846l151.538 233.845H604l-123.154-191.77h1.539L356-212.001h-63.306Z"/></svg>