<svg xmlns="http://www.w3.org/2000/svg" height="20" viewBox="0 -960 960 960" width="20"><path d="M287.54-207.001v-545.998h201.414q63.199 0 114.122 39.401 50.923 39.402 50.923 106.214 0 44.845-21.154 74.115-21.154 29.269-46.154 43.082 31.769 11.572 59.269 43.918 27.5 32.346 27.5 85.423 0 78.691-58.569 116.268t-117.735 37.577H287.54Zm91.997-85.69h113.916q47.547 0 66.586-26.231t19.039-50.309q0-24.078-19.539-50.308Q540-445.77 490.923-445.77H379.537v153.079Zm0-234.308h103.77q36.462 0 58.309-21.346 21.847-21.347 21.847-49.424 0-30.924-22.687-50.54-22.686-19.615-55.629-19.615h-105.61v140.925Z"/></svg>