<svg xmlns="http://www.w3.org/2000/svg" height="20" viewBox="0 -960 960 960" width="20"><path d="M424.307-306.463H289.539q-72.018 0-122.778-50.819-50.76-50.82-50.76-122.922 0-72.103 50.76-122.718 50.76-50.615 122.778-50.615h134.768v51.998H289.539q-50.385 0-85.962 35.577Q168-530.385 168-480q0 50.385 35.577 85.962 35.577 35.577 85.962 35.577h134.768v51.998Zm-78.306-147.538v-51.998h267.998v51.998H346.001Zm189.692 147.538v-51.998h134.768q50.385 0 85.962-35.577Q792-429.615 792-480q0-50.385-35.577-85.962-35.577-35.577-85.962-35.577H535.693v-51.998h134.768q72.018 0 122.778 50.819 50.76 50.82 50.76 122.922 0 72.103-50.76 122.718-50.76 50.615-122.778 50.615H535.693Z"/></svg>