<svg xmlns="http://www.w3.org/2000/svg" height="20" viewBox="0 -960 960 960" width="20"><path d="M164.001-164.001v-35.692h96v-36.308h-48v-35.692h48v-36.308h-96v-35.692h113.846q7.585 0 12.715 5.131 5.131 5.13 5.131 12.715v55.693q0 7.584-5.131 12.715-5.13 5.13-12.715 5.13 7.585 0 12.715 5.131 5.131 5.131 5.131 12.715v52.616q0 7.584-5.131 12.715-5.13 5.131-12.715 5.131H164.001Zm0-226.153V-480q0-7.584 5.131-12.715t12.715-5.131h78.154v-36.308h-96v-35.692h113.846q7.585 0 12.715 5.131 5.131 5.131 5.131 12.715v72q0 7.584-5.131 12.715-5.13 5.131-12.715 5.131h-78.154v36.308h96v35.692H164.001Zm48-226.153v-144h-48v-35.692h83.692v179.692h-35.692Zm160.308 366.306v-51.998h423.69v51.998h-423.69Zm0-204v-51.998h423.69v51.998h-423.69Zm0-204v-51.998h423.69v51.998h-423.69Z"/></svg>