<svg xmlns="http://www.w3.org/2000/svg" height="20" viewBox="0 -960 960 960" width="20"><path d="M228.309-164.001q-27.008 0-45.658-18.65-18.65-18.65-18.65-45.658v-503.382q0-27.008 18.65-45.658 18.65-18.65 45.658-18.65h236.305V-744H228.309q-4.616 0-8.463 3.846-3.846 3.847-3.846 8.463v503.382q0 4.616 3.846 8.463 3.847 3.846 8.463 3.846h503.382q4.616 0 8.463-3.846 3.846-3.847 3.846-8.463v-236.305h51.999v236.305q0 27.008-18.65 45.658-18.65 18.65-45.658 18.65H228.309Zm159.46-186.615-37.153-37.153L706.847-744H576v-51.999h219.999V-576H744v-130.847L387.769-350.616Z"/></svg>