<svg xmlns="http://www.w3.org/2000/svg" height="20" viewBox="0 -960 960 960" width="20"><path d="M739.384-321.847 698-361.461q42.162-11.298 68.081-44.418Q792-439 792-480q0-50.385-35.385-85.962-35.384-35.577-85.384-35.577H534.924v-51.998h136.307q71.602 0 122.185 50.839 50.583 50.838 50.583 122.916 0 50.936-28.539 92.897-28.538 41.961-76.076 65.038ZM607.23-454.001l-51.999-51.998h57.999v51.998h-6Zm174.617 350.154-678-678L141-819l678 678-37.153 37.153ZM425.076-306.463H289.539q-71.988 0-122.763-50.775Q116.001-408.013 116.001-480q0-61.624 38.962-108.004t107.808-68.841h9.231l52.307 55.306h-33.77q-51.385 0-86.962 35.577Q168-530.385 168-480q0 50.385 35.577 85.962 35.577 35.577 85.962 35.577h135.537v51.998ZM346.77-454.001v-51.998h68.693l50.999 51.998H346.77Z"/></svg>